<svg width="256" height="256" xmlns="http://www.w3.org/2000/svg" xml:space="preserve" version="1.1">

 <g>
  <title>Layer 1</title>
  <g id="svg_1" fill-rule=" nonzero" fill=" none" stroke-miterlimit="10" stroke-linejoin=" miter" stroke-linecap=" butt" stroke-dasharray=" none" stroke-width="0" stroke=" none" transform="translate(1.40659 1.40659) scale(2.81 2.81)">
   <path id="svg_2" fill-rule=" nonzero" fill="#e8e8e8" stroke-miterlimit="10" stroke-linejoin=" miter" stroke-dasharray=" none" stroke-linecap=" butt" d="m88,20.462c-1.104,0 -2,0.896 -2,2l0,45.076c0,1.713 -0.675,3.268 -1.768,4.424l-21.566,-22.096c-0.74,-0.759 -1.944,-0.808 -2.744,-0.112l-14.807,12.876l-2.122,-2.183c-0.771,-0.793 -2.037,-0.809 -2.828,-0.039s-0.81,2.036 -0.039,2.828l3.441,3.538c0.739,0.76 1.945,0.812 2.746,0.114l14.81,-12.878l19.417,19.894c-0.324,0.05 -0.653,0.084 -0.991,0.084l-54.387,0c-1.104,0 -2,0.896 -2,2s0.896,2 2,2l54.386,0c2.036,0 3.932,-0.594 5.54,-1.605c0.037,-0.022 0.073,-0.042 0.109,-0.066c2.885,-1.861 4.803,-5.097 4.803,-8.779l0,-45.076c0,-1.105 -0.896,-2 -2,-2z"/>
   <path id="svg_3" fill-rule=" nonzero" fill="#e8e8e8" stroke-miterlimit="10" stroke-linejoin=" miter" stroke-dasharray=" none" stroke-linecap=" butt" d="m89.489,5.094c-0.739,-0.823 -2.001,-0.892 -2.825,-0.153l-7.882,7.07l-68.33,0c-5.764,-0.001 -10.452,4.688 -10.452,10.451l0,45.076c0,4.26 2.565,7.926 6.229,9.552l-5.565,4.992c-0.822,0.738 -0.891,2.003 -0.153,2.825c0.395,0.44 0.941,0.664 1.489,0.664c0.476,0 0.953,-0.169 1.335,-0.511l86,-77.143c0.822,-0.736 0.892,-2.001 0.154,-2.823zm-79.037,10.916l63.871,0l-39.814,35.714l-9.858,-10.135c-0.748,-0.77 -1.971,-0.81 -2.771,-0.093l-17.88,16.066l0,-35.1c0,-3.558 2.894,-6.452 6.452,-6.452zm-6.452,51.528l0,-4.599l19.125,-17.184l8.404,8.641l-21.795,19.551c-3.221,-0.359 -5.734,-3.094 -5.734,-6.409z"/>
   <path id="svg_4" fill-rule=" nonzero" fill="#e8e8e8" stroke-miterlimit="10" stroke-linejoin=" miter" stroke-dasharray=" none" stroke-linecap=" butt" d="m32.889,36.844c-4.517,0 -8.191,-3.675 -8.191,-8.191s3.675,-8.191 8.191,-8.191s8.191,3.674 8.191,8.191s-3.674,8.191 -8.191,8.191zm0,-12.382c-2.311,0 -4.191,1.88 -4.191,4.191s1.88,4.191 4.191,4.191s4.191,-1.88 4.191,-4.191s-1.88,-4.191 -4.191,-4.191z"/>
  </g>
 </g>
</svg>